<svg width="24" height="25" viewBox="0 0 24 25" fill="none" xmlns="http://www.w3.org/2000/svg">
<path d="M22.3746 6.62905C21.3829 5.53239 19.7263 4.98405 17.3229 4.98405H17.0429V4.93739C17.0429 2.97739 17.0429 0.55072 12.6563 0.55072H10.8829C6.49628 0.55072 6.49628 2.98905 6.49628 4.93739V4.99572H6.21628C3.80128 4.99572 2.15628 5.54405 1.16461 6.64072C0.713812 7.22989 0.391597 7.90705 0.218774 8.62849C0.0459519 9.34992 0.0263642 10.0996 0.161276 10.8291L0.172943 10.9107L0.28961 12.1357C0.306651 12.1541 0.326308 12.1698 0.347943 12.1824C0.732943 12.4391 1.12961 12.6957 1.54961 12.9291C1.71294 13.0341 1.88794 13.1274 2.06294 13.2207C4.06159 14.3113 6.23159 15.053 8.47961 15.4141C8.58461 16.5107 9.06294 17.7941 11.6179 17.7941C14.1729 17.7941 14.6746 16.5224 14.7563 15.3907C17.1379 15.0038 19.4278 14.1811 21.5113 12.9641C21.5813 12.9291 21.6279 12.8941 21.6863 12.8591C22.2155 12.56 22.7259 12.2288 23.2146 11.8674C23.2394 11.8542 23.2597 11.8339 23.2729 11.8091L23.3196 11.3891L23.3779 10.8407C23.3896 10.7707 23.3896 10.7124 23.4013 10.6307C23.5143 9.92896 23.4815 9.21143 23.3049 8.52292C23.1282 7.83442 22.8115 7.18971 22.3746 6.62905ZM13.0413 14.6207C13.0413 15.8574 13.0413 16.0441 11.6063 16.0441C10.1713 16.0441 10.1713 15.8224 10.1713 14.6324V13.1624H13.0413V14.6207ZM8.16461 4.98405V4.93739C8.16461 2.95405 8.16461 2.21905 10.8829 2.21905H12.6563C15.3746 2.21905 15.3746 2.96572 15.3746 4.93739V4.99572H8.16461V4.98405Z" fill="#7F7F7F"/>
<path d="M21.6863 12.8357L21.5113 12.9407C19.4256 14.1528 17.1366 14.9751 14.7563 15.3674C14.663 16.4874 14.173 17.7707 11.618 17.7707C9.06301 17.7707 8.57301 16.499 8.47967 15.3907C6.22898 15.0404 4.05718 14.2981 2.06301 13.1974C1.88801 13.104 1.71301 13.0107 1.54967 12.9057C1.12967 12.6724 0.733006 12.4157 0.348006 12.159C0.326371 12.1464 0.306714 12.1307 0.289673 12.1124L1.00134 19.7074C1.24634 22.029 2.20301 24.4207 7.33634 24.4207H16.2263C21.3597 24.4207 22.3163 22.029 22.5613 19.6957L23.2963 11.7857C23.2831 11.8105 23.2628 11.8308 23.238 11.844C22.7423 12.2071 22.224 12.5383 21.6863 12.8357Z" fill="black"/>
</svg>
