<svg width="29" height="29" viewBox="0 0 29 29" fill="none" xmlns="http://www.w3.org/2000/svg">
<path d="M2.83337 11.1386V18.1386C2.83337 19.0669 3.20212 19.9571 3.8585 20.6135C4.51488 21.2699 5.40512 21.6386 6.33337 21.6386H22.6667C23.595 21.6386 24.4852 21.2699 25.1416 20.6135C25.798 19.9571 26.1667 19.0669 26.1667 18.1386V11.1386C26.1667 10.2104 25.798 9.32011 25.1416 8.66374C24.4852 8.00736 23.595 7.63861 22.6667 7.63861H6.33337C5.40512 7.63861 4.51488 8.00736 3.8585 8.66374C3.20212 9.32011 2.83337 10.2104 2.83337 11.1386Z" fill="white"/>
<path d="M6.71832 6.85698V7.25365C6.71832 7.39365 6.71832 7.52198 6.72999 7.66198C6.79123 7.64775 6.85379 7.63993 6.91666 7.63865H22.0833C22.1462 7.63993 22.2087 7.64775 22.27 7.66198C22.2817 7.53365 22.2817 7.40532 22.2817 7.25365V6.85698C22.2817 3.75365 21.5 2.97198 18.385 2.97198H10.615C7.49999 2.97198 6.71832 3.75365 6.71832 6.85698Z" fill="#8C8C8C"/>
<path d="M22.0833 21.6386H6.91666C6.85379 21.6373 6.79123 21.6295 6.72999 21.6153C6.71832 21.7436 6.71832 21.872 6.71832 22.0236V22.4203C6.71832 25.5236 7.49999 26.3053 10.615 26.3053H18.385C21.5 26.3053 22.2817 25.5236 22.2817 22.4203V22.0236C22.2817 21.8836 22.2817 21.7553 22.27 21.6153C22.2087 21.6295 22.1462 21.6373 22.0833 21.6386Z" fill="#8C8C8C"/>
</svg>
