<svg width="28" height="29" viewBox="0 0 28 29" fill="none" xmlns="http://www.w3.org/2000/svg">
<path d="M25.27 12.3523L24.1267 17.229C23.1467 21.4407 21.21 23.144 17.57 22.794C16.9328 22.7384 16.3008 22.6331 15.68 22.479L13.72 22.0123C8.85501 20.8573 7.35001 18.454 8.49334 13.5773L9.63667 8.689C9.82847 7.8041 10.118 6.94326 10.5 6.12233C11.8638 3.299 14.1867 2.54067 18.0833 3.46233L20.0317 3.91733C24.92 5.06067 26.4133 7.47567 25.27 12.3523Z" fill="white"/>
<path d="M17.57 22.794C16.7188 23.3387 15.7961 23.7628 14.8284 24.054L12.985 24.6607C8.35337 26.154 5.91503 24.9057 4.41003 20.274L2.9167 15.6657C1.42337 11.034 2.66003 8.58404 7.2917 7.09071L9.13503 6.48404C9.58249 6.33664 10.0383 6.21587 10.5 6.12238C10.1181 6.9433 9.8285 7.80414 9.6367 8.68904L8.49336 13.5774C7.35003 18.454 8.85503 20.8574 13.72 22.0124L15.68 22.479C16.3009 22.6332 16.9328 22.7385 17.57 22.794Z" fill="#8C8C8C"/>
<path d="M20.4018 12.4343C20.3274 12.4317 20.2534 12.4239 20.1801 12.411L14.5253 10.976C14.4142 10.9476 14.3098 10.8977 14.218 10.829C14.1262 10.7603 14.0489 10.6742 13.9904 10.5756C13.8722 10.3765 13.838 10.1386 13.8953 9.91431C13.9525 9.68998 14.0965 9.49758 14.2956 9.37943C14.4947 9.26128 14.7326 9.22707 14.9569 9.28431L20.6153 10.7193C20.8215 10.7705 21.0019 10.8955 21.1224 11.0706C21.2429 11.2457 21.2952 11.4588 21.2693 11.6698C21.2435 11.8807 21.1414 12.0749 20.9822 12.2158C20.823 12.3566 20.6178 12.4344 20.4053 12.4343H20.4018Z" fill="#161616"/>
<path d="M16.987 16.3777C16.9126 16.3751 16.8386 16.3673 16.7653 16.3543L13.3703 15.491C13.2592 15.4626 13.1548 15.4127 13.063 15.344C12.9713 15.2753 12.8939 15.1892 12.8354 15.0906C12.7173 14.8915 12.6831 14.6537 12.7403 14.4293C12.7975 14.205 12.9416 14.0126 13.1407 13.8944C13.3398 13.7763 13.5776 13.7421 13.802 13.7993L17.197 14.6627C17.4212 14.7201 17.6134 14.8642 17.7315 15.0632C17.8496 15.2622 17.884 15.5 17.827 15.7243C17.7823 15.9126 17.6747 16.08 17.522 16.1989C17.3692 16.3177 17.1805 16.3807 16.987 16.3777Z" fill="#161616"/>
</svg>
