<svg width="16" height="25" viewBox="0 0 16 25" fill="none" xmlns="http://www.w3.org/2000/svg">
<path d="M4.00049 24.0475C6.20849 24.0475 8.00049 22.2555 8.00049 20.0475V16.0475H4.00049C1.79249 16.0475 0.000488281 17.8395 0.000488281 20.0475C0.000488281 22.2555 1.79249 24.0475 4.00049 24.0475Z" fill="#E2E2E2"/>
<path d="M0.000488281 12.0477C0.000488281 9.83967 1.79249 8.04767 4.00049 8.04767H8.00049V16.0477H4.00049C1.79249 16.0477 0.000488281 14.2557 0.000488281 12.0477Z" fill="white"/>
<path d="M0.000488281 4.04761C0.000488281 1.83961 1.79249 0.0476074 4.00049 0.0476074H8.00049V8.0476H4.00049C1.79249 8.0476 0.000488281 6.2556 0.000488281 4.04761Z" fill="#E2E2E2"/>
<path d="M7.99902 0.0476074H11.999C14.207 0.0476074 15.999 1.83961 15.999 4.04761C15.999 6.2556 14.207 8.0476 11.999 8.0476H7.99902V0.0476074Z" fill="white"/>
<path d="M15.999 12.0477C15.999 14.2557 14.207 16.0477 11.999 16.0477C9.79102 16.0477 7.99902 14.2557 7.99902 12.0477C7.99902 9.83967 9.79102 8.04767 11.999 8.04767C14.207 8.04767 15.999 9.83967 15.999 12.0477Z" fill="#E2E2E2"/>
</svg>
