<svg width="22" height="16" viewBox="0 0 22 16" fill="none" xmlns="http://www.w3.org/2000/svg">
<path d="M18.4726 1.326C17.1349 0.711939 15.7015 0.259795 14.2019 0.00113643C14.1744 -0.00395527 14.1469 0.00826555 14.1337 0.0337241C13.9494 0.36163 13.7448 0.790349 13.6023 1.1264C11.9897 0.885054 10.3853 0.885054 8.80529 1.1264C8.66174 0.782202 8.44999 0.36163 8.2647 0.0337241C8.25045 0.00928389 8.22297 -0.00293693 8.1965 0.00113643C6.69795 0.259795 5.26353 0.711939 3.92583 1.326C3.91463 1.33109 3.90445 1.33924 3.89732 1.35044C1.17712 5.41565 0.431891 9.38107 0.797368 13.2976C0.799404 13.317 0.809586 13.3353 0.824857 13.3465C2.61966 14.6652 4.3585 15.4656 6.06473 15.9962C6.09222 16.0044 6.12072 15.9942 6.13803 15.9718C6.54117 15.4208 6.90156 14.8394 7.21003 14.2273C7.22835 14.1917 7.21002 14.1489 7.17337 14.1347C6.60225 13.9178 6.05962 13.654 5.53635 13.3546C5.49461 13.3302 5.49157 13.2711 5.52924 13.2426C5.63919 13.1601 5.74913 13.0746 5.85399 12.988C5.87333 12.9717 5.89979 12.9687 5.92219 12.9789C9.35604 14.5471 13.0739 14.5471 16.4671 12.9789C16.4895 12.9677 16.5159 12.9717 16.5353 12.987C16.6401 13.0736 16.7501 13.1601 16.861 13.2426C16.8987 13.2711 16.8967 13.3302 16.8549 13.3546C16.3327 13.6601 15.789 13.9188 15.2169 14.1347C15.1792 14.1489 15.1629 14.1917 15.1813 14.2284C15.4969 14.8384 15.8562 15.4198 16.2522 15.9718C16.2685 15.9952 16.2981 16.0054 16.3255 15.9972C18.0399 15.4667 19.7787 14.6663 21.5735 13.3475C21.5888 13.3363 21.599 13.318 21.601 13.2996C22.0388 8.7721 20.868 4.83927 18.4991 1.35248C18.493 1.34127 18.4838 1.33211 18.4716 1.32702L18.4726 1.326ZM7.72106 10.9127C6.68673 10.9127 5.83567 9.96356 5.83567 8.79756C5.83567 7.63156 6.67146 6.68246 7.72106 6.68246C8.77066 6.68246 9.62378 7.64072 9.60647 8.79756C9.60647 9.96356 8.77066 10.9127 7.72106 10.9127ZM14.6936 10.9127C13.6593 10.9127 12.8082 9.96356 12.8082 8.79756C12.8082 7.63156 13.644 6.68246 14.6936 6.68246C15.7432 6.68246 16.5963 7.64072 16.579 8.79756C16.579 9.96356 15.7524 10.9127 14.6936 10.9127Z" fill="white"/>
</svg>
