<svg width="24" height="25" viewBox="0 0 24 25" fill="none" xmlns="http://www.w3.org/2000/svg">
<path d="M24 4.45905C24 5.15128 23.7947 5.82797 23.4101 6.40354C23.0256 6.97911 22.4789 7.42772 21.8394 7.69262C21.1999 7.95753 20.4961 8.02684 19.8172 7.89179C19.1383 7.75675 18.5146 7.4234 18.0251 6.93392C17.5356 6.44444 17.2023 5.82079 17.0673 5.14186C16.9322 4.46293 17.0015 3.75919 17.2664 3.11965C17.5313 2.48011 17.9799 1.93349 18.5555 1.5489C19.1311 1.16432 19.8078 0.959045 20.5 0.959045C21.4283 0.959045 22.3185 1.32779 22.9749 1.98417C23.6313 2.64055 24 3.53079 24 4.45905Z" fill="black"/>
<path d="M20.5 9.70907C19.1083 9.70691 17.7742 9.15309 16.7901 8.16899C15.806 7.18489 15.2522 5.85079 15.25 4.45907C15.2581 3.64761 15.4537 2.84902 15.8217 2.12573L7.10669 2.12573C3.08169 2.12573 0.666687 4.52907 0.666687 8.56573V17.8407C0.666687 21.8891 3.08169 24.2924 7.10669 24.2924H16.3817C20.4184 24.2924 22.8217 21.8891 22.8217 17.8524V9.1374C22.1031 9.50664 21.3079 9.70243 20.5 9.70907Z" fill="#7F7F7F"/>
<path d="M12.0417 14.959H6.20837C5.97678 14.9575 5.75511 14.8648 5.59134 14.7011C5.42758 14.5373 5.3349 14.3156 5.33337 14.084C5.3349 13.8525 5.42758 13.6308 5.59134 13.467C5.75511 13.3033 5.97678 13.2106 6.20837 13.209H12.0417C12.2733 13.2106 12.495 13.3033 12.6587 13.467C12.8225 13.6308 12.9152 13.8525 12.9167 14.084C12.9152 14.3156 12.8225 14.5373 12.6587 14.7011C12.495 14.8648 12.2733 14.9575 12.0417 14.959Z" fill="#161616"/>
<path d="M16.7084 19.6257H6.20837C5.97678 19.6242 5.75511 19.5315 5.59134 19.3678C5.42758 19.204 5.3349 18.9823 5.33337 18.7507C5.3349 18.5191 5.42758 18.2975 5.59134 18.1337C5.75511 17.9699 5.97678 17.8773 6.20837 17.8757H16.7084C16.94 17.8773 17.1616 17.9699 17.3254 18.1337C17.4892 18.2975 17.5818 18.5191 17.5834 18.7507C17.5818 18.9823 17.4892 19.204 17.3254 19.3678C17.1616 19.5315 16.94 19.6242 16.7084 19.6257Z" fill="#161616"/>
</svg>
