<svg width="54" height="33" viewBox="0 0 54 33" fill="none" xmlns="http://www.w3.org/2000/svg">
<path fill-rule="evenodd" clip-rule="evenodd" d="M27 0.299988C19.8 0.299988 15.3 3.89999 13.5 11.1C16.2 7.49999 19.35 6.14999 22.95 7.04999C25.004 7.56299 26.472 9.05399 28.097 10.703C30.744 13.39 33.808 16.5 40.5 16.5C47.7 16.5 52.2 12.9 54 5.69999C51.3 9.29999 48.15 10.65 44.55 9.74999C42.496 9.23699 41.028 7.74599 39.403 6.09699C36.756 3.40999 33.692 0.299988 27 0.299988ZM13.5 16.5C6.3 16.5 1.8 20.1 0 27.3C2.7 23.7 5.85 22.35 9.45 23.25C11.504 23.764 12.972 25.254 14.597 26.903C17.244 29.59 20.308 32.7 27 32.7C34.2 32.7 38.7 29.1 40.5 21.9C37.8 25.5 34.65 26.85 31.05 25.95C28.996 25.437 27.528 23.946 25.903 22.297C23.256 19.61 20.192 16.5 13.5 16.5Z" fill="url(#paint0_linear_3_396)"/>
<defs>
<linearGradient id="paint0_linear_3_396" x1="27" y1="0.299988" x2="27" y2="32.7" gradientUnits="userSpaceOnUse">
<stop stop-color="white"/>
<stop offset="1" stop-color="white" stop-opacity="0.5"/>
</linearGradient>
</defs>
</svg>
