<svg width="25" height="25" viewBox="0 0 25 25" fill="none" xmlns="http://www.w3.org/2000/svg">
<path d="M23.0199 17.3495H16.0199C15.7883 17.348 15.5666 17.2553 15.4029 17.0915C15.2391 16.9278 15.1464 16.7061 15.1449 16.4745C15.1464 16.2429 15.2391 16.0212 15.4029 15.8575C15.5666 15.6937 15.7883 15.601 16.0199 15.5995H23.0199C23.2515 15.601 23.4732 15.6937 23.6369 15.8575C23.8007 16.0212 23.8934 16.2429 23.8949 16.4745C23.8934 16.7061 23.8007 16.9278 23.6369 17.0915C23.4732 17.2553 23.2515 17.348 23.0199 17.3495Z" fill="#8C8C8C"/>
<path d="M23.0199 22.0161H16.0199C15.7883 22.0146 15.5666 21.9219 15.4029 21.7581C15.2391 21.5944 15.1464 21.3727 15.1449 21.1411C15.1464 20.9095 15.2391 20.6878 15.4029 20.5241C15.5666 20.3603 15.7883 20.2676 16.0199 20.2661H23.0199C23.2515 20.2676 23.4732 20.3603 23.6369 20.5241C23.8007 20.6878 23.8934 20.9095 23.8949 21.1411C23.8934 21.3727 23.8007 21.5944 23.6369 21.7581C23.4732 21.9219 23.2515 22.0146 23.0199 22.0161Z" fill="#8C8C8C"/>
<path d="M24.1866 8.33115V3.03449C24.1866 1.38949 23.4399 0.724487 21.5849 0.724487H16.8716C15.0166 0.724487 14.2699 1.38949 14.2699 3.03449V8.31949C14.2699 9.97615 15.0166 10.6295 16.8716 10.6295H21.5849C23.4399 10.6412 24.1866 9.97615 24.1866 8.33115Z" fill="white"/>
<path d="M10.7699 8.33115V3.03449C10.7699 1.38949 10.0233 0.724487 8.16827 0.724487H3.45494C1.59994 0.724487 0.853271 1.38949 0.853271 3.03449V8.31949C0.853271 9.97615 1.59994 10.6295 3.45494 10.6295H8.16827C10.0233 10.6412 10.7699 9.97615 10.7699 8.33115Z" fill="#8C8C8C"/>
<path d="M10.7699 21.4561V16.7428C10.7699 14.8878 10.0233 14.1411 8.16827 14.1411H3.45494C1.59994 14.1411 0.853271 14.8878 0.853271 16.7428V21.4561C0.853271 23.3111 1.59994 24.0578 3.45494 24.0578H8.16827C10.0233 24.0578 10.7699 23.3111 10.7699 21.4561Z" fill="white"/>
</svg>
