<svg width="24" height="25" viewBox="0 0 24 25" fill="none" xmlns="http://www.w3.org/2000/svg">
<path d="M22.885 6.62905C21.8933 5.53239 20.2367 4.98405 17.8333 4.98405H17.5533V4.93739C17.5533 2.97739 17.5533 0.55072 13.1667 0.55072H11.3933C7.00665 0.55072 7.00665 2.98905 7.00665 4.93739V4.99572H6.72665C4.31165 4.99572 2.66665 5.54405 1.67499 6.64072C1.22419 7.22989 0.901973 7.90705 0.72915 8.62849C0.556328 9.34992 0.53674 10.0996 0.671652 10.8291L0.683319 10.9107L0.799986 12.1357C0.817027 12.1541 0.836684 12.1698 0.858319 12.1824C1.24332 12.4391 1.63999 12.6957 2.05999 12.9291C2.22332 13.0341 2.39832 13.1274 2.57332 13.2207C4.57197 14.3113 6.74196 15.053 8.98999 15.4141C9.09499 16.5107 9.57332 17.7941 12.1283 17.7941C14.6833 17.7941 15.185 16.5224 15.2667 15.3907C17.6483 15.0038 19.9382 14.1811 22.0217 12.9641C22.0917 12.9291 22.1383 12.8941 22.1967 12.8591C22.7259 12.56 23.2362 12.2288 23.725 11.8674C23.7498 11.8542 23.7701 11.8339 23.7833 11.8091L23.83 11.3891L23.8883 10.8407C23.9 10.7707 23.9 10.7124 23.9117 10.6307C24.0247 9.92896 23.9919 9.21143 23.8152 8.52292C23.6386 7.83442 23.3219 7.18971 22.885 6.62905ZM13.5517 14.6207C13.5517 15.8574 13.5517 16.0441 12.1167 16.0441C10.6817 16.0441 10.6817 15.8224 10.6817 14.6324V13.1624H13.5517V14.6207ZM8.67499 4.98405V4.93739C8.67499 2.95405 8.67499 2.21905 11.3933 2.21905H13.1667C15.885 2.21905 15.885 2.96572 15.885 4.93739V4.99572H8.67499V4.98405Z" fill="white"/>
<path d="M22.1967 12.8357L22.0217 12.9407C19.936 14.1528 17.647 14.9751 15.2667 15.3674C15.1734 16.4874 14.6834 17.7707 12.1284 17.7707C9.57338 17.7707 9.08338 16.499 8.99005 15.3907C6.73936 15.0404 4.56756 14.2981 2.57338 13.1974C2.39838 13.104 2.22338 13.0107 2.06005 12.9057C1.64005 12.6724 1.24338 12.4157 0.858382 12.159C0.836747 12.1464 0.81709 12.1307 0.800049 12.1124L1.51172 19.7074C1.75672 22.029 2.71338 24.4207 7.84672 24.4207H16.7367C21.87 24.4207 22.8267 22.029 23.0717 19.6957L23.8067 11.7857C23.7935 11.8105 23.7732 11.8308 23.7484 11.844C23.2526 12.2071 22.7344 12.5383 22.1967 12.8357Z" fill="#8C8C8C"/>
</svg>
