<svg width="24" height="25" viewBox="0 0 24 25" fill="none" xmlns="http://www.w3.org/2000/svg">
<path d="M22.5 17.3495H15.5C15.2684 17.348 15.0467 17.2553 14.883 17.0915C14.7192 16.9278 14.6265 16.7061 14.625 16.4745C14.6265 16.2429 14.7192 16.0212 14.883 15.8575C15.0467 15.6937 15.2684 15.601 15.5 15.5995H22.5C22.7316 15.601 22.9533 15.6937 23.117 15.8575C23.2808 16.0212 23.3735 16.2429 23.375 16.4745C23.3735 16.7061 23.2808 16.9278 23.117 17.0915C22.9533 17.2553 22.7316 17.348 22.5 17.3495Z" fill="black"/>
<path d="M22.5 22.0161H15.5C15.2684 22.0146 15.0467 21.9219 14.883 21.7581C14.7192 21.5944 14.6265 21.3727 14.625 21.1411C14.6265 20.9095 14.7192 20.6878 14.883 20.5241C15.0467 20.3603 15.2684 20.2676 15.5 20.2661H22.5C22.7316 20.2676 22.9533 20.3603 23.117 20.5241C23.2808 20.6878 23.3735 20.9095 23.375 21.1411C23.3735 21.3727 23.2808 21.5944 23.117 21.7581C22.9533 21.9219 22.7316 22.0146 22.5 22.0161Z" fill="black"/>
<path d="M23.6667 8.33115V3.03449C23.6667 1.38949 22.92 0.724487 21.065 0.724487H16.3517C14.4967 0.724487 13.75 1.38949 13.75 3.03449V8.31949C13.75 9.97615 14.4967 10.6295 16.3517 10.6295H21.065C22.92 10.6412 23.6667 9.97615 23.6667 8.33115Z" fill="#7F7F7F"/>
<path d="M10.25 8.33115V3.03449C10.25 1.38949 9.50338 0.724487 7.64838 0.724487H2.93504C1.08004 0.724487 0.333374 1.38949 0.333374 3.03449V8.31949C0.333374 9.97615 1.08004 10.6295 2.93504 10.6295H7.64838C9.50338 10.6412 10.25 9.97615 10.25 8.33115Z" fill="black"/>
<path d="M10.25 21.4561V16.7428C10.25 14.8878 9.50338 14.1411 7.64838 14.1411H2.93504C1.08004 14.1411 0.333374 14.8878 0.333374 16.7428V21.4561C0.333374 23.3111 1.08004 24.0578 2.93504 24.0578H7.64838C9.50338 24.0578 10.25 23.3111 10.25 21.4561Z" fill="#7F7F7F"/>
</svg>
