<svg width="19" height="17" viewBox="0 0 19 17" fill="none" xmlns="http://www.w3.org/2000/svg">
<path d="M13.7536 0.139648H4.95719C2.52704 0.139648 0.550049 2.11664 0.550049 4.54679V12.5942C0.550049 15.0243 2.52704 17.0013 4.95719 17.0013H13.7536C16.1837 17.0013 18.1607 15.0243 18.1607 12.5942V4.54679C18.1607 2.11664 16.1837 0.139648 13.7536 0.139648ZM2.10475 4.54679C2.10475 2.97416 3.38457 1.69435 4.95719 1.69435H13.7536C15.3262 1.69435 16.606 2.97416 16.606 4.54679V12.5942C16.606 14.1668 15.3262 15.4466 13.7536 15.4466H4.95719C3.38457 15.4466 2.10475 14.1668 2.10475 12.5942V4.54679Z" fill="white"/>
<path d="M9.35556 12.6685C11.6154 12.6685 13.455 10.83 13.455 8.56912C13.455 6.30828 11.6164 4.46973 9.35556 4.46973C7.09472 4.46973 5.25616 6.30828 5.25616 8.56912C5.25616 10.83 7.09472 12.6685 9.35556 12.6685ZM9.35556 6.02542C10.7589 6.02542 11.9003 7.1668 11.9003 8.57011C11.9003 9.97343 10.7589 11.1148 9.35556 11.1148C7.95225 11.1148 6.81087 9.97343 6.81087 8.57011C6.81087 7.1668 7.95225 6.02542 9.35556 6.02542Z" fill="white"/>
<path d="M13.8341 5.13191C14.4425 5.13191 14.9383 4.63691 14.9383 4.02738C14.9383 3.41785 14.4435 2.92285 13.8341 2.92285C13.2248 2.92285 12.7299 3.41785 12.7299 4.02738C12.7299 4.63691 13.2248 5.13191 13.8341 5.13191Z" fill="white"/>
</svg>
