<svg width="24" height="25" viewBox="0 0 24 25" fill="none" xmlns="http://www.w3.org/2000/svg">
<path d="M23.4633 4.45905C23.4633 5.15128 23.258 5.82797 22.8735 6.40354C22.4889 6.97911 21.9423 7.42772 21.3027 7.69262C20.6632 7.95753 19.9594 8.02684 19.2805 7.89179C18.6016 7.75675 17.9779 7.4234 17.4884 6.93392C16.999 6.44444 16.6656 5.82079 16.5306 5.14186C16.3955 4.46293 16.4648 3.75919 16.7297 3.11965C16.9946 2.48011 17.4433 1.93349 18.0188 1.5489C18.5944 1.16432 19.2711 0.959045 19.9633 0.959045C20.8916 0.959045 21.7818 1.32779 22.4382 1.98417C23.0946 2.64055 23.4633 3.53079 23.4633 4.45905Z" fill="#8C8C8C"/>
<path d="M19.9633 9.70907C18.5716 9.70691 17.2375 9.15309 16.2534 8.16899C15.2693 7.18489 14.7155 5.85079 14.7133 4.45907C14.7214 3.64761 14.9171 2.84902 15.285 2.12573L6.57 2.12573C2.545 2.12573 0.130005 4.52907 0.130005 8.56573V17.8407C0.130005 21.8891 2.545 24.2924 6.57 24.2924H15.845C19.8817 24.2924 22.285 21.8891 22.285 17.8524V9.1374C21.5664 9.50664 20.7713 9.70243 19.9633 9.70907Z" fill="white"/>
<path d="M11.505 14.959H5.67169C5.4401 14.9575 5.21843 14.8648 5.05466 14.7011C4.8909 14.5373 4.79822 14.3156 4.79669 14.084C4.79822 13.8525 4.8909 13.6308 5.05466 13.467C5.21843 13.3033 5.4401 13.2106 5.67169 13.209H11.505C11.7366 13.2106 11.9583 13.3033 12.1221 13.467C12.2858 13.6308 12.3785 13.8525 12.38 14.084C12.3785 14.3156 12.2858 14.5373 12.1221 14.7011C11.9583 14.8648 11.7366 14.9575 11.505 14.959Z" fill="#161616"/>
<path d="M16.1717 19.6257H5.67169C5.4401 19.6242 5.21843 19.5315 5.05466 19.3678C4.8909 19.204 4.79822 18.9823 4.79669 18.7507C4.79822 18.5191 4.8909 18.2975 5.05466 18.1337C5.21843 17.9699 5.4401 17.8773 5.67169 17.8757H16.1717C16.4033 17.8773 16.625 17.9699 16.7887 18.1337C16.9525 18.2975 17.0452 18.5191 17.0467 18.7507C17.0452 18.9823 16.9525 19.204 16.7887 19.3678C16.625 19.5315 16.4033 19.6242 16.1717 19.6257Z" fill="#161616"/>
</svg>
