<svg width="29" height="29" viewBox="0 0 29 29" fill="none" xmlns="http://www.w3.org/2000/svg">
<path d="M3.10333 11.1386V18.1386C3.10333 19.0669 3.47208 19.9571 4.12846 20.6135C4.78484 21.2699 5.67507 21.6386 6.60333 21.6386H22.9367C23.8649 21.6386 24.7552 21.2699 25.4115 20.6135C26.0679 19.9571 26.4367 19.0669 26.4367 18.1386V11.1386C26.4367 10.2104 26.0679 9.32011 25.4115 8.66374C24.7552 8.00736 23.8649 7.63861 22.9367 7.63861H6.60333C5.67507 7.63861 4.78484 8.00736 4.12846 8.66374C3.47208 9.32011 3.10333 10.2104 3.10333 11.1386Z" fill="#7F7F7F"/>
<path d="M6.98828 6.85698V7.25365C6.98828 7.39365 6.98828 7.52198 6.99995 7.66198C7.06119 7.64775 7.12375 7.63993 7.18661 7.63865H22.3533C22.4161 7.63993 22.4787 7.64775 22.5399 7.66198C22.5516 7.53365 22.5516 7.40532 22.5516 7.25365V6.85698C22.5516 3.75365 21.7699 2.97198 18.6549 2.97198H10.8849C7.76995 2.97198 6.98828 3.75365 6.98828 6.85698Z" fill="black"/>
<path d="M22.3533 21.6386H7.18661C7.12375 21.6373 7.06119 21.6295 6.99995 21.6153C6.98828 21.7436 6.98828 21.872 6.98828 22.0236V22.4203C6.98828 25.5236 7.76995 26.3053 10.8849 26.3053H18.6549C21.7699 26.3053 22.5516 25.5236 22.5516 22.4203V22.0236C22.5516 21.8836 22.5516 21.7553 22.5399 21.6153C22.4787 21.6295 22.4161 21.6373 22.3533 21.6386Z" fill="black"/>
</svg>
