<svg width="68" height="61" viewBox="0 0 68 61" fill="none" xmlns="http://www.w3.org/2000/svg">
<path fill-rule="evenodd" clip-rule="evenodd" d="M67.6873 30.5956C67.6873 26.1325 62.1002 21.9051 53.5303 19.2788C55.5097 10.5445 54.6269 3.59755 50.7559 1.37147C49.8622 0.850584 48.8205 0.603851 47.68 0.603851V3.66882C48.3105 3.66882 48.8205 3.79493 49.2481 4.02522C51.1178 5.09439 51.9238 9.17371 51.2933 14.4209C51.1398 15.7094 50.893 17.0692 50.5914 18.4564C47.8993 17.7984 44.9605 17.2885 41.8736 16.9595C40.0203 14.4209 38.0958 12.1126 36.1603 10.0949C40.6344 5.9278 44.8344 3.65238 47.691 3.65238V0.587402C43.9132 0.587402 38.9731 3.27953 33.9726 7.95101C28.9722 3.30695 24.032 0.642232 20.2543 0.642232V3.70721C23.0944 3.70721 27.3108 5.97167 31.7904 10.1058C29.8659 12.1235 27.9468 14.4154 26.121 16.9595C23.0177 17.2885 20.0788 17.7984 17.3867 18.4673C17.0687 17.0966 16.8384 15.7642 16.6739 14.4867C16.0269 9.23951 16.8274 5.16019 18.6806 4.07456C19.0919 3.82783 19.6292 3.71817 20.2597 3.71817V0.658681C19.1083 0.658681 18.0611 0.905414 17.1564 1.42629C13.2964 3.65238 12.4301 10.5883 14.4259 19.2953C5.87246 21.9271 0.312744 26.1435 0.312744 30.5956C0.312744 35.0588 5.89988 39.2861 14.4697 41.9125C12.4904 50.6468 13.3731 57.5937 17.2441 59.8198C18.1378 60.3407 19.1796 60.5874 20.3365 60.5874C24.1143 60.5874 29.0544 57.8953 34.0549 53.2238C39.0553 57.8679 43.9955 60.5326 47.7732 60.5326C48.9246 60.5326 49.9719 60.2858 50.8766 59.765C54.7366 57.5389 55.6029 50.6029 53.6071 41.896C62.1276 39.2751 67.6873 35.0423 67.6873 30.5956ZM40.2616 30.5956C40.2616 27.1304 37.4543 24.3176 33.9836 24.3176C30.5183 24.3176 27.7056 27.1249 27.7056 30.5956C27.7056 34.0663 30.5129 36.8736 33.9836 36.8736C37.4543 36.8681 40.2616 34.0609 40.2616 30.5956ZM49.8074 21.4336C49.2975 23.2046 48.6669 25.0304 47.9542 26.8563C47.3894 25.7597 46.8027 24.6576 46.1557 23.561C45.5252 22.4644 44.8508 21.3897 44.1764 20.348C46.1283 20.6386 48.009 20.995 49.8074 21.4336ZM43.5184 36.0621C42.4493 37.9154 41.3472 39.6754 40.2067 41.3093C38.1616 41.4903 36.089 41.5835 34 41.5835C31.9275 41.5835 29.8549 41.4848 27.8207 41.3203C26.6803 39.6864 25.5672 37.9428 24.4981 36.1005C23.4563 34.3021 22.5078 32.4763 21.6414 30.634C22.4913 28.7917 23.4563 26.9549 24.4816 25.1565C25.5508 23.3033 26.6529 21.5433 27.7933 19.9093C29.8385 19.7284 31.911 19.6352 34 19.6352C36.0726 19.6352 38.1451 19.7339 40.1793 19.8984C41.3198 21.5323 42.4328 23.2759 43.502 25.1182C44.5438 26.9166 45.4923 28.7424 46.3586 30.5847C45.4923 32.4215 44.5492 34.2582 43.5184 36.0621ZM47.9542 34.2747C48.6943 36.117 49.3249 37.9538 49.8513 39.7412C48.0528 40.1798 46.1557 40.5527 44.1928 40.8378C44.8672 39.7796 45.5362 38.694 46.1722 37.5809C46.7972 36.4843 47.3894 35.3713 47.9542 34.2747ZM34.0274 48.9252C32.7499 47.6092 31.4724 46.1398 30.2113 44.5333C31.445 44.5881 32.7115 44.632 33.9891 44.632C35.2776 44.632 36.5551 44.6046 37.8052 44.5333C36.566 46.1398 35.2885 47.6092 34.0274 48.9252ZM23.8127 40.8378C21.8608 40.5472 19.9801 40.1908 18.1817 39.7522C18.6916 37.9812 19.3222 36.1553 20.0349 34.3295C20.5997 35.4261 21.1864 36.5282 21.8333 37.6248C22.4803 38.7269 23.1383 39.796 23.8127 40.8378ZM33.9562 12.2606C35.2337 13.5765 36.5112 15.046 37.7723 16.6525C36.5386 16.5976 35.2721 16.5538 33.9945 16.5538C32.7061 16.5538 31.4285 16.5812 30.1784 16.6525C31.4176 15.046 32.6951 13.5765 33.9562 12.2606ZM23.7962 20.348C23.1218 21.4062 22.4529 22.4918 21.8169 23.6049C21.1864 24.7014 20.5942 25.8035 20.0295 26.9001C19.2893 25.0578 18.6587 23.2211 18.1324 21.4336C19.9362 21.0059 21.8333 20.6386 23.7962 20.348ZM11.3664 37.5425C6.503 35.47 3.36127 32.7504 3.36127 30.5956C3.36127 28.4408 6.50848 25.7048 11.3664 23.6487C12.5452 23.1388 13.8392 22.6892 15.1716 22.2615C15.9556 24.9537 16.9864 27.7555 18.2639 30.623C17.0029 33.4797 15.983 36.265 15.2154 38.9462C13.8556 38.5185 12.5617 38.0525 11.3664 37.5425ZM18.7574 57.166C16.8877 56.0969 16.0817 52.0175 16.7123 46.7704C16.8658 45.4819 17.1125 44.1221 17.4141 42.7349C20.1062 43.3929 23.0451 43.9028 26.132 44.2317C27.9852 46.7704 29.9097 49.0787 31.8452 51.0964C27.3656 55.258 23.1657 57.5389 20.3091 57.5389C19.6895 57.5224 19.1686 57.4018 18.7574 57.166ZM51.3317 46.7046C51.9786 51.9517 51.1781 56.0311 49.3249 57.1167C48.9137 57.3634 48.3763 57.4731 47.7458 57.4731C44.9056 57.4731 40.6892 55.2086 36.2097 51.0745C38.1342 49.0567 40.0532 46.7649 41.879 44.2208C44.9824 43.8918 47.9213 43.3819 50.6134 42.7075C50.9314 44.0947 51.1781 45.427 51.3317 46.7046ZM56.6172 37.5425C55.4384 38.0525 54.1444 38.5021 52.812 38.9297C52.028 36.2376 50.9972 33.4358 49.7197 30.5682C50.9807 27.7116 52.0006 24.9263 52.7682 22.2451C54.128 22.6728 55.4165 23.1388 56.6282 23.6432C61.4916 25.7158 64.6333 28.4353 64.6333 30.5901C64.6223 32.7504 61.4806 35.4809 56.6172 37.5425Z" fill="url(#paint0_linear_3_420)"/>
<defs>
<linearGradient id="paint0_linear_3_420" x1="34" y1="0.587402" x2="34" y2="60.5874" gradientUnits="userSpaceOnUse">
<stop stop-color="white"/>
<stop offset="1" stop-color="white" stop-opacity="0.3"/>
</linearGradient>
</defs>
</svg>
