<svg width="39" height="58" viewBox="0 0 39 58" fill="none" xmlns="http://www.w3.org/2000/svg">
<path d="M9.63232 57.7961C14.9496 57.7961 19.265 53.4807 19.265 48.1635V38.5308H9.63232C4.31508 38.5308 -0.000366211 42.8462 -0.000366211 48.1635C-0.000366211 53.4807 4.31508 57.7961 9.63232 57.7961Z" fill="#0ACF83"/>
<path d="M-0.000366211 28.8983C-0.000366211 23.5811 4.31508 19.2656 9.63232 19.2656H19.265V38.531H9.63232C4.31508 38.531 -0.000366211 34.2156 -0.000366211 28.8983Z" fill="#A259FF"/>
<path d="M-0.000366211 9.63269C-0.000366211 4.31544 4.31508 0 9.63232 0H19.265V19.2654H9.63232C4.31508 19.2654 -0.000366211 14.9499 -0.000366211 9.63269Z" fill="#F24E1E"/>
<path d="M19.265 0H28.8977C34.2149 0 38.5304 4.31544 38.5304 9.63269C38.5304 14.9499 34.2149 19.2654 28.8977 19.2654H19.265V0Z" fill="#FF7262"/>
<path d="M38.5304 28.8983C38.5304 34.2156 34.2149 38.531 28.8977 38.531C23.5805 38.531 19.265 34.2156 19.265 28.8983C19.265 23.5811 23.5805 19.2656 28.8977 19.2656C34.2149 19.2656 38.5304 23.5811 38.5304 28.8983Z" fill="#1ABCFE"/>
</svg>
