<svg width="20" height="20" viewBox="0 0 20 20" fill="none" xmlns="http://www.w3.org/2000/svg">
    <g clip-path="url(#clip0_10_344)">
        <path
            d="M1.66663 1.66666H3.11663C3.32934 1.66711 3.53966 1.71157 3.73436 1.79725C3.92905 1.88293 4.10391 2.00798 4.24793 2.16452C4.39195 2.32107 4.50202 2.50572 4.5712 2.70687C4.64039 2.90802 4.66721 3.12131 4.64996 3.33332L3.95829 11.6333C3.9318 11.9548 3.97223 12.2782 4.07705 12.5832C4.18186 12.8883 4.34877 13.1683 4.56725 13.4055C4.78572 13.6428 5.05101 13.8322 5.34638 13.9618C5.64174 14.0913 5.96076 14.1583 6.28329 14.1583H15.1583C15.7478 14.1471 16.3124 13.9191 16.7444 13.5179C17.1764 13.1167 17.4454 12.5704 17.5 11.9833L17.95 5.73332C17.9777 5.41106 17.9374 5.08657 17.8318 4.78086C17.7261 4.47514 17.5575 4.195 17.3368 3.95857C17.116 3.72213 16.8481 3.53467 16.5504 3.4083C16.2527 3.28194 15.9317 3.21949 15.6083 3.22499H4.84996"
            stroke="white" stroke-width="1.2" stroke-linecap="round" stroke-linejoin="round" />
        <path
            d="M14.5833 17.2917C14.5833 17.4977 14.5222 17.6991 14.4078 17.8704C14.2933 18.0417 14.1306 18.1752 13.9403 18.254C13.75 18.3329 13.5405 18.3535 13.3384 18.3133C13.1364 18.2731 12.9508 18.1739 12.8051 18.0282C12.6594 17.8826 12.5602 17.6969 12.52 17.4949C12.4798 17.2928 12.5005 17.0834 12.5793 16.893C12.6581 16.7027 12.7916 16.54 12.9629 16.4256C13.1342 16.3111 13.3356 16.25 13.5417 16.25C13.8179 16.25 14.0829 16.3597 14.2782 16.5551C14.4736 16.7504 14.5833 17.0154 14.5833 17.2917Z"
            stroke="white" stroke-width="1.2" stroke-linecap="round" stroke-linejoin="round" />
        <path
            d="M7.91671 17.2917C7.91671 17.4977 7.85561 17.6991 7.74116 17.8704C7.6267 18.0417 7.46401 18.1752 7.27367 18.254C7.08333 18.3329 6.87389 18.3535 6.67182 18.3133C6.46976 18.2731 6.28415 18.1739 6.13847 18.0282C5.99279 17.8826 5.89358 17.6969 5.85339 17.4949C5.8132 17.2928 5.83383 17.0834 5.91267 16.893C5.99151 16.7027 6.12502 16.54 6.29632 16.4256C6.46762 16.3111 6.66902 16.25 6.87504 16.25C7.15131 16.25 7.41626 16.3597 7.61161 16.5551C7.80696 16.7504 7.91671 17.0154 7.91671 17.2917Z"
            stroke="white" stroke-width="1.2" stroke-linecap="round" stroke-linejoin="round" />
        <path d="M7.5 6.66666H17.5" stroke="white" stroke-width="1.2" stroke-linecap="round"
            stroke-linejoin="round" />
    </g>
    <defs>
        <clipPath id="clip0_10_344">
            <rect width="20" height="20" fill="white" />
        </clipPath>
    </defs>
</svg>