<svg width="29" height="29" viewBox="0 0 29 29" fill="none" xmlns="http://www.w3.org/2000/svg">
<path d="M25.9367 12.3523L24.7934 17.229C23.8134 21.4407 21.8767 23.144 18.2367 22.794C17.5994 22.7384 16.9675 22.6331 16.3467 22.479L14.3867 22.0123C9.52169 20.8573 8.01669 18.454 9.16003 13.5773L10.3034 8.689C10.4952 7.8041 10.7847 6.94326 11.1667 6.12233C12.5305 3.299 14.8534 2.54067 18.75 3.46233L20.6984 3.91733C25.5867 5.06067 27.08 7.47567 25.9367 12.3523Z" fill="#7F7F7F"/>
<path d="M18.2367 22.794C17.3855 23.3387 16.4628 23.7628 15.4951 24.054L13.6517 24.6607C9.02005 26.154 6.58172 24.9057 5.07672 20.274L3.58339 15.6657C2.09005 11.034 3.32672 8.58404 7.95839 7.09071L9.80172 6.48404C10.2492 6.33664 10.705 6.21587 11.1667 6.12238C10.7847 6.9433 10.4952 7.80414 10.3034 8.68904L9.16005 13.5774C8.01672 18.454 9.52172 20.8574 14.3867 22.0124L16.3467 22.479C16.9675 22.6332 17.5995 22.7385 18.2367 22.794Z" fill="black"/>
<path d="M21.0685 12.4343C20.9941 12.4317 20.92 12.4239 20.8468 12.411L15.192 10.976C15.0809 10.9476 14.9765 10.8977 14.8847 10.829C14.7929 10.7603 14.7156 10.6742 14.6571 10.5756C14.5389 10.3765 14.5047 10.1386 14.562 9.91431C14.6192 9.68998 14.7632 9.49758 14.9623 9.37943C15.1614 9.26128 15.3993 9.22707 15.6236 9.28431L21.282 10.7193C21.4882 10.7705 21.6686 10.8955 21.7891 11.0706C21.9096 11.2457 21.9619 11.4588 21.936 11.6698C21.9102 11.8807 21.8081 12.0749 21.6489 12.2158C21.4897 12.3566 21.2845 12.4344 21.072 12.4343H21.0685Z" fill="#161616"/>
<path d="M17.6537 16.3777C17.5793 16.3751 17.5052 16.3673 17.432 16.3543L14.037 15.491C13.9259 15.4626 13.8215 15.4127 13.7297 15.344C13.638 15.2753 13.5606 15.1892 13.5021 15.0906C13.384 14.8915 13.3497 14.6537 13.407 14.4293C13.4642 14.205 13.6082 14.0126 13.8073 13.8944C14.0064 13.7763 14.2443 13.7421 14.4687 13.7993L17.8637 14.6627C18.0879 14.7201 18.2801 14.8642 18.3982 15.0632C18.5163 15.2622 18.5506 15.5 18.4937 15.7243C18.449 15.9126 18.3414 16.08 18.1887 16.1989C18.0359 16.3177 17.8472 16.3807 17.6537 16.3777Z" fill="#161616"/>
</svg>
