<svg width="25" height="17" viewBox="0 0 25 17" fill="none" xmlns="http://www.w3.org/2000/svg">
<path d="M24.3455 4.85947C24.1981 3.49899 23.8809 1.99503 22.7134 1.20467C21.8091 0.591755 20.6205 0.569096 19.511 0.570355C17.1654 0.570355 14.8186 0.574135 12.473 0.575394C10.217 0.577911 7.96094 0.579168 5.7049 0.581685C4.76247 0.581685 3.84637 0.512464 2.97106 0.902612C2.21949 1.23738 1.63113 1.87421 1.27706 2.58277C0.786105 3.56821 0.683444 4.68454 0.624213 5.77443C0.514965 7.75916 0.526811 9.74891 0.657119 11.7324C0.753204 13.1797 0.996705 14.7793 2.16684 15.7018C3.20404 16.5186 4.6677 16.5589 6.0129 16.5601C10.2828 16.5639 14.554 16.5677 18.8252 16.5702C19.3728 16.5715 19.944 16.5614 20.5021 16.5035C21.5998 16.3902 22.6462 16.0894 23.3517 15.3117C24.0638 14.5276 24.2468 13.4364 24.3547 12.4032C24.618 9.89616 24.6153 7.36523 24.3455 4.85947ZM10.0037 12.0848V5.0558L16.3691 8.56965L10.0037 12.0848Z" fill="white"/>
</svg>
